# Blender v2.80 (sub 75) OBJ File: 'arrow.blend'
# www.blender.org
mtllib Arrow.mtl
o Cube
v -6.000000 1.000000 -3.000000
v -6.000000 -1.000000 -3.000000
v 0.000000 1.000000 -2.000000
v 0.000000 -1.000000 -2.000000
v 0.000000 1.000000 0.000000
v 0.000000 -1.000000 0.000000
v 6.000000 1.000000 -3.000000
v 6.000000 -1.000000 -3.000000
vt 0.375000 0.000000
vt 0.625000 0.000000
vt 0.375000 0.250000
vt 0.375000 0.500000
vt 0.625000 0.500000
vt 0.625000 0.750000
vt 0.375000 0.750000
vt 0.625000 0.750000
vt 0.375000 1.000000
vt 0.625000 0.500000
vt 0.875000 0.500000
vt 0.875000 0.750000
vt 0.625000 0.000000
vt 0.375000 0.750000
vt 0.625000 0.750000
vt 0.625000 0.500000
vt 0.875000 0.500000
vn 0.0000 1.0000 0.0000
vn -0.4472 0.0000 0.8944
vn 0.0000 -1.0000 0.0000
vn 0.1644 0.0000 -0.9864
vn 0.4472 0.0000 0.8944
vn -0.1644 0.0000 -0.9864
usemtl Material
s off
f 3/1/1 1/2/1 5/3/1
f 6/4/2 5/5/2 1/6/2 2/7/2
f 2/7/3 4/8/3 6/9/3
f 2/10/4 1/11/4 3/12/4 4/8/4
f 3/1/1 5/3/1 7/13/1
f 6/4/5 8/14/5 7/15/5 5/5/5
f 8/14/3 6/9/3 4/8/3
f 8/16/6 4/8/6 3/12/6 7/17/6
